<?xml version="1.0" encoding="UTF-8"?>
<!DOCTYPE svg  PUBLIC '-//W3C//DTD SVG 1.1//EN'  'http://www.w3.org/Graphics/SVG/1.1/DTD/svg11.dtd'>
<svg enable-background="new 0 0 64.9 39.9" version="1.1" viewBox="0 0 64.9 39.9" xml:space="preserve" xmlns="http://www.w3.org/2000/svg">
<linearGradient id="a" x1="7.771" x2="50.586" y1="2.7827" y2="2.7827" gradientTransform="matrix(.7684 .64 -.64 .7684 -7.2002e-5 .00036502)" gradientUnits="userSpaceOnUse">
	<stop stop-color="#669624" offset="0"/>
	<stop stop-color="#648F29" offset="1"/>
</linearGradient>
<path d="m20.4 3.85c0.333 0.233 0.533 0.35 0.6 0.35 0.167 0.066 0.467 0.117 0.9 0.15 0.3 0.033 0.65-0.017 1.05-0.15 0.2-0.067 0.25 0 0.15 0.2-0.2 0.5 0.333 1.167 1.6 2 0.566 0.4 0.917 0.7 1.05 0.9 0.1 0.233 0.517 0.3 1.25 0.2l-0.15 0.35c-0.1 0.267-0.067 0.483 0.1 0.65 0.133 0.133 0.333 0.217 0.6 0.25s0.467 0.15 0.6 0.35c0.2 0.233 0.184 0.6-0.05 1.1-0.233 0.466-0.517 0.85-0.85 1.15-0.2 0.167-0.567 0.7-1.1 1.6-0.133 0.2-0.167 0.4-0.1 0.6 0.034 0.1 0.1 0.3 0.2 0.6 0.033 0.233 0.017 0.467-0.05 0.7-0.167 0.5-0.267 0.8-0.3 0.9-0.1 0.367-0.1 0.633 0 0.8 0.067 0.1 0.2 0.267 0.4 0.5 0.367 0.567 0.767 0.95 1.2 1.15 0.333 0.133 0.717 0.683 1.15 1.65 0.333 0.7 0.483 1.067 0.45 1.1 0.133 0.166 0.283 0.35 0.45 0.55s0.267 0.45 0.3 0.75c0.066 1 0.117 1.566 0.15 1.7 0.1 0.333 0.017 0.833-0.25 1.5-0.033 0.3 0.05 0.5 0.25 0.6 0.1 0.101 0.283 0.2 0.55 0.3 0.2 0.101 0.284 0.267 0.25 0.5 0 0.101-0.033 0.25-0.1 0.45-0.034 0.134 0.233 0.316 0.8 0.55 0.1 0.067 0.283 0.134 0.55 0.2 0.233 0.066 0.351 0.134 0.351 0.2 0 0.5 0.183 0.833 0.55 1 0.366 0.167 0.6 0.333 0.7 0.5l0.149 0.4c0.101 0.267 0.316 0.433 0.65 0.5 0.166 0.133 0.416 0.449 0.75 0.949 0.166 0.2 0.35 0.134 0.55-0.199l0.15 0.9c0.033 0.2 0.166 0.467 0.399 0.8 0.134 0.167 0.334 0.417 0.601 0.75 0.1 0.167 0.05 0.483-0.15 0.95-0.267 0.601-0.4 0.983-0.4 1.15-0.033 0-0.083 0.05-0.149 0.149-0.101 0.201-0.201 0.501-0.301 0.901-0.233 1.1-0.5 1.967-0.801 2.6-0.166 0.301-0.3 0.367-0.399 0.2l-0.25-0.45c-0.2 0-0.367-0.033-0.5-0.1-0.267-0.1-0.45-0.333-0.55-0.7l-0.25-0.7-1.3 0.601c-0.167 0.066-0.317 0.05-0.45-0.05-0.066-0.101-0.267-0.384-0.6-0.851-0.2-0.333-0.5-0.666-0.9-1-0.533-0.399-0.85-0.666-0.95-0.8-0.267-0.267-0.583-0.45-0.95-0.55-0.3-0.066-0.483-0.117-0.55-0.15-0.233-0.133-0.7 0-1.4 0.4-0.267 0.166-0.417-0.066-0.45-0.7l-0.95 0.2c-0.4 0.133-0.533-0.25-0.4-1.15 0.067-0.399 0-0.6-0.2-0.6-0.267 0.1-0.483 0.133-0.65 0.1s-0.25-0.133-0.25-0.3c0.033-0.167 0.05-0.283 0.05-0.35 0.033-0.101-0.067-0.301-0.3-0.601-0.2-0.267-0.4-0.467-0.6-0.6-0.133-0.134-0.3-0.184-0.5-0.15l-0.9 0.2c-0.9 0.233-1.533 0.217-1.9-0.05-0.267-0.167-0.667-0.351-1.2-0.55-0.3-0.101-0.683-0.101-1.15 0l-0.65 0.151c0.3-0.366 0.367-0.666 0.2-0.899-0.133-0.167-0.317-0.284-0.55-0.351-0.267-0.066-0.816-0.116-1.65-0.149-0.833-0.034-1.417-0.101-1.75-0.2-0.3-0.101-0.75-0.4-1.35-0.9-0.533-0.434-0.9-0.666-1.1-0.7-0.367 0.034-0.8 0.034-1.3 0-0.633-0.033-0.983-0.133-1.05-0.3-0.034-0.233-0.133-0.467-0.3-0.7-0.2-0.233-0.183-0.366 0.05-0.399 0.4-0.066 0.65-0.134 0.75-0.2 0.233-0.167 0.216-0.35-0.05-0.55l-1.7-1c-0.733-0.4-1.4-0.55-2-0.45-0.534 0.233-0.9 0.366-1.1 0.4-0.233 0.033-0.317 0.033-0.25 0 0.2-0.134 0.383-0.25 0.55-0.351 0.667-0.399 1.017-0.916 1.05-1.55 0.066-1.233-0.284-1.767-1.05-1.6-0.4 0.1-0.8-0.301-1.2-1.2-0.367-0.733-0.583-1.367-0.65-1.9-0.033-0.233 0.1-0.483 0.4-0.75 0.367-0.3 0.583-0.617 0.65-0.95 0.1-0.467 0.033-0.767-0.2-0.9-0.133-0.1-0.417-0.167-0.85-0.2-0.233-0.034-0.25-0.118-0.05-0.251 0.4-0.3 0.65-0.517 0.75-0.65 0.3-0.3 0.45-0.5 0.45-0.6 0.033-0.133-0.1-0.217-0.4-0.25-0.433-0.033-0.9 0.233-1.4 0.8-0.1-0.2-0.117-0.633-0.05-1.3 0.033-0.333-0.1-0.7-0.4-1.1s-0.434-0.783-0.4-1.15c0.033-0.4 0.083-0.65 0.15-0.75 0.133-0.2 0.233-0.367 0.3-0.5 0.1-0.333 0.467-0.4 1.1-0.2 0.566 0.2 1.2 0.55 1.9 1.05 0.533 0.367 1.033 0.433 1.5 0.2 0.233-0.133 0.417-0.3 0.55-0.5 0.167-0.2 0.067-0.533-0.3-1-0.2-0.3-0.233-0.617-0.1-0.95 0.267-0.6 0.4-0.95 0.4-1.05 0.067-0.333 0.017-0.617-0.15-0.85-0.133-0.133-0.15-0.233-0.05-0.3 0.067-0.033 0.283-0.033 0.65 0 0.3 0 0.567-0.117 0.8-0.35s0.25-0.45 0.05-0.65c-0.2-0.167-0.233-0.283-0.1-0.35 0.133-0.066 0.5-0.15 1.1-0.25 0.6-0.133 0.95-0.233 1.05-0.3s0.117-0.25 0.05-0.55c-0.067-0.367-0.05-0.633 0.05-0.8 0.133-0.233 0.3-0.367 0.5-0.4 0.167-0.033 0.3 0 0.4 0.1 0.033 0.033 0.05 0.25 0.05 0.65 0 0.367 0.1 0.483 0.3 0.35 0.367-0.2 0.917-0.45 1.65-0.75 0.1-0.067-0.083-0.483-0.55-1.25-0.4-0.7-0.55-1.067-0.45-1.1 0.567-0.133 0.883-0.2 0.95-0.2 0.467-0.066 0.85 0 1.15 0.2 0.267 0.233 0.583 0.333 0.95 0.3 0.2 0 0.433-0.05 0.7-0.15 0.767-0.1 1.3 0.167 1.6 0.8 0.133 0.3 0.333 0.533 0.6 0.7 0.3 0.167 0.467 0.267 0.5 0.3 0.1 0.133 0.267 0.2 0.5 0.2 0.167 0 0.467-0.017 0.9-0.05 0.233 0.033 0.367 0.15 0.4 0.35 0 0.3 0.033 0.483 0.1 0.55 0.1 0.133 0.267 0.233 0.5 0.3 0.3 0.1 0.517 0.2 0.65 0.3z" clip-rule="evenodd" fill="url(#a)" fill-rule="evenodd"/>
<path d="m21.65 18.15l-0.75-0.9 0.2-0.45c0.2-0.233 0.417-0.233 0.65 0 0.333 0.267 0.75 0.833 1.25 1.7 0.533 0.867 0.833 1.5 0.9 1.9 0.267 1.066 0.817 2.183 1.65 3.35 0.5 0.733 1.017 1.15 1.55 1.25 0.167-0.533 0.183-1.233 0.05-2.1-0.167-0.867-0.283-1.45-0.35-1.75-0.1-0.467-0.033-0.634 0.2-0.5 0.233 0.166 0.533 0.616 0.9 1.35 0.333 0.733 0.517 1.333 0.55 1.8 0.066 0.3 0.117 0.834 0.15 1.601 0.066 0.699 0.2 1.216 0.4 1.55 0.4 0.666 1.017 1.033 1.85 1.1 0.667 0.101 1.317 0.601 1.95 1.5 0.367 0.566 0.934 1.184 1.7 1.851 0.167 0.267 0.983 1.166 2.45 2.699v0.7c0 0.167-0.2 0.55-0.601 1.15-0.233 0.399-0.3 0.6-0.199 0.6v1.3c0.066 0.467-0.25 1.117-0.95 1.95l-0.1-0.201c0.101-0.699 0.084-1.116-0.05-1.25-0.267-0.366-0.85-0.8-1.75-1.3-0.467-0.267-0.9-0.35-1.3-0.25-0.4 0.066-0.7 0.033-0.9-0.1-0.333-0.2-0.45-0.384-0.35-0.55 0.1-0.134 0.3-0.233 0.6-0.301l0.8-0.199c0.199-0.167 0.066-0.45-0.4-0.851-0.467-0.434-0.95-0.7-1.45-0.8-0.6-0.1-1.1-0.184-1.5-0.25-0.167-0.033-0.783-0.1-1.85-0.2-0.767-0.066-1.367-0.217-1.8-0.45-0.467-0.233-0.85-0.566-1.15-1l-0.3-0.6 2.8 0.2c0.7 0.166 1.917 0.616 3.65 1.35-0.8-0.767-1.566-1.416-2.3-1.95-0.333-0.267-0.934-0.449-1.8-0.55-0.9-0.066-1.583-0.249-2.05-0.549-0.567-0.333-1.267-0.583-2.1-0.75-0.867-0.1-1.467-0.184-1.8-0.25-0.567-0.134-1.417-0.434-2.55-0.9-1.2-0.533-1.9-0.933-2.1-1.199-0.2-0.267-0.133-0.517 0.2-0.75 0.3-0.267 0.633-0.384 1-0.351 0.3 0.033 1.184 0.351 2.65 0.95 1.333 0.566 2.367 1.033 3.1 1.4l1 0.5c0.067 0-0.1-0.217-0.5-0.65-0.233-0.267-0.7-0.566-1.4-0.9-0.7-0.366-1.25-0.767-1.65-1.199-0.5-0.5-1.184-0.884-2.05-1.15-1.066-0.2-1.9-0.4-2.5-0.6-0.733-0.233-1.233-0.617-1.5-1.15l-0.2-0.7 2.25 0.45c1.566 0.366 2.467 0.616 2.7 0.75l4.05 2.499c-0.967-1.667-1.583-2.684-1.85-3.05-1.1-1.634-1.983-2.684-2.65-3.15-1.867-1.2-3.2-2.233-4-3.1l-3.5-3.75 1.3 1.15c0.434 0.233 1.5 1 3.2 2.3 0.733 0.567 1.833 1.133 3.3 1.7-1.533-1.8-2.55-3.067-3.05-3.8-0.333-0.466-0.6-0.917-0.8-1.35l-0.2-0.55 0.6 0.35c0.433 0.333 0.767 0.65 1 0.95 0.333 0.5 1.483 1.533 3.45 3.1l-0.45-0.9c-0.767-1.233-1.467-2.533-2.1-3.9-0.4-0.933-0.5-1.617-0.3-2.05 0.233-0.434 0.534-0.467 0.9-0.1 0.3 0.3 0.55 0.717 0.75 1.25 0.133 0.367 0.35 1.05 0.65 2.05 0.233 0.667 0.783 1.983 1.65 3.95 0.367 0.833 1.35 2.333 2.95 4.5-0.3-0.5-0.55-1.1-0.75-1.8-0.133-0.433-0.483-0.983-1.05-1.65z" clip-rule="evenodd" fill="#779E39" fill-rule="evenodd"/>
<path d="m7.15 10.1c0.067 0.1 0.4 0.233 1 0.4 0.4 0.1 0.467 0.333 0.2 0.7 0.133 0 0.3-0.067 0.5-0.2 0.167-0.133 0.35-0.167 0.55-0.1 0.067 0.233 0.167 0.684 0.3 1.35 0.1 0.567 0.233 1.033 0.4 1.4-0.2 0.067-0.6-0.017-1.2-0.25-0.066 0.233 0.083 0.4 0.45 0.5 0.467 0.133 0.733 0.317 0.8 0.55-0.133 0.066-0.283 0.066-0.45 0-0.2-0.133-0.35-0.217-0.45-0.25-0.033 0.367 0.217 0.617 0.75 0.75 0.6 0.167 0.967 0.35 1.1 0.55-0.167 0.133-0.483 0.083-0.95-0.15-0.367-0.167-0.6-0.083-0.7 0.25-0.233 0.066-0.367-0.033-0.4-0.3 0-0.233-0.083-0.333-0.25-0.3-0.1 0.367-0.333 0.433-0.7 0.2-0.633-0.434-1.017-0.667-1.15-0.7 0.367-0.067 0.633-0.033 0.8 0.1 0.167-0.1 0.15-0.184-0.05-0.25-0.233-0.033-0.35-0.133-0.35-0.3 0.067-0.033 0.233-0.05 0.5-0.05 0.133 0 0.233-0.1 0.3-0.3l-1.65-0.55c-0.133 0.133-0.167 0.35-0.1 0.65 0.1 0.333 0.117 0.55 0.05 0.65-0.3 0-0.75 0.1-1.35 0.3l-0.05-0.85c0.267 0.067 0.517 0.033 0.75-0.1 0.2-0.133 0.284-0.333 0.25-0.6 0.4-0.267 0.85-0.3 1.35-0.1 0.567 0.233 0.983 0.316 1.25 0.25-0.233-0.167-0.95-0.367-2.15-0.6-0.933-0.2-1.483-0.617-1.65-1.25 0.6-0.1 1-0.133 1.2-0.1 0.267 0.067 0.467 0.25 0.6 0.55 0.633-0.533 1.017-0.95 1.15-1.25-0.233-0.067-0.383-0.167-0.45-0.3l-0.2 0.8c-0.133 0.1-0.267 0.1-0.4 0-0.167-0.133-0.3-0.167-0.4-0.1l0.5-0.4c0.333-0.267 0.4-0.517 0.2-0.75 0.1-0.034 0.15-0.034 0.15 0 0 0.067-0.017 0.117-0.05 0.15zm0.25 2.05c0 0.167 0.067 0.317 0.2 0.45 0.566-0.367 0.783-0.667 0.65-0.9-0.167 0.2-0.333 0.25-0.5 0.15-0.233-0.133-0.4-0.167-0.5-0.1 0.1 0.1 0.15 0.233 0.15 0.4z" clip-rule="evenodd" fill="#59851F" fill-rule="evenodd"/>
<path d="m7.3 16.3l-0.7-0.4c0.1-0.066 0.2-0.133 0.3-0.2 0.2-0.1 0.333-0.133 0.4-0.1l1.05 0.4c0.267 0.133 0.433 0.117 0.5-0.05l1.65 0.5c0.2 0.033 0.317 0.117 0.35 0.25 0.033 0.1-0.017 0.183-0.15 0.25-0.233 0.066-0.717-0.017-1.45-0.25-0.333-0.1-0.55-0.133-0.65-0.1-0.2 0.033-0.317 0.05-0.35 0.05-0.167 0-0.483-0.117-0.95-0.35z" clip-rule="evenodd" fill="#59851F" fill-rule="evenodd"/>
<path d="m6.05 16.9c0.133-0.066 0.617-0.017 1.45 0.15 0.167 0 0.467 0.017 0.9 0.05h0.75c0.667 0.033 1.283 0.333 1.85 0.9l-0.4-0.1c-0.333-0.2-0.767-0.316-1.3-0.35-0.367-0.033-0.617-0.017-0.75 0.05l-0.15 0.15-0.05 0.1c-0.033 0.067-0.017 0.15 0.05 0.25 0.133 0.133 0.583 0.267 1.35 0.4 0.3 0.067 0.417 0.233 0.35 0.5h-0.45c-0.3 0.033-0.5 0.083-0.6 0.15s-0.1 0.2 0 0.4c0.067 0.133 0.184 0.333 0.35 0.601 0.133 0.3 0.167 0.75 0.1 1.35l0.25 0.95c0.033 0.166 0.267 0.7 0.7 1.6l0.65 0.75c0.033 0.033 0.083 0.217 0.15 0.55 0.1 0.367 0.2 0.65 0.3 0.851 0.167 0.434 0.684 0.883 1.55 1.35-1.033-0.3-1.684-0.6-1.95-0.899-0.167-0.2-0.316-0.317-0.45-0.351-0.067-0.033-0.217-0.033-0.45 0-0.667 0.066-1.15 0.05-1.45-0.05-0.2-0.1-0.45-0.15-0.75-0.15-0.133 0.034-0.183 0.034-0.15 0 0.1-0.066-0.033-0.25-0.4-0.55s-0.8-0.583-1.3-0.85c-0.567-0.3-0.95-0.467-1.15-0.5-0.233-0.033-0.617 0.033-1.15 0.2-0.733 0.267-1.083 0.333-1.05 0.199l1.4-1 0.05 0.25c0.067 0.167 0.184 0.233 0.35 0.2 0.2 0 0.567-0.116 1.1-0.35 0.367-0.167 0.717-0.233 1.05-0.2 0.167 0.033 0.367 0.066 0.6 0.1 0.167 0 0.35-0.233 0.55-0.699 0.233-0.5 0.383-0.983 0.45-1.45 0.067-0.4-0.017-0.617-0.25-0.65-0.7-0.133-1.1-0.217-1.2-0.25-0.967-0.366-1.434-0.566-1.4-0.6 0.767-0.2 1.5-0.233 2.2-0.1 0.233 0.033 0.333-0.083 0.3-0.35s-0.167-0.6-0.4-1c-0.2-0.3-0.566-0.483-1.1-0.55-0.7-0.034-1.267-0.067-1.7-0.1-0.5-0.067-0.483-0.217 0.05-0.45 0.667-0.269 1.05-0.435 1.15-0.502z" clip-rule="evenodd" fill="#59851F" fill-rule="evenodd"/>
<path d="m17.05 29.95c-0.066 0.066-0.233 0.083-0.5 0.05-0.5-0.1-0.767-0.15-0.8-0.15h-2.1c-0.7 0.067-1.15 0.067-1.35 0-0.533-0.233-0.917-0.483-1.15-0.75-0.167-0.199-0.45-0.416-0.85-0.649-0.433-0.234-0.75-0.351-0.95-0.351-0.167 0.034-0.35 0.016-0.55-0.05-0.233-0.033-0.45-0.05-0.65-0.05-0.333 0.066-0.55 0.1-0.65 0.1s-0.167-0.067-0.2-0.2l-0.25-0.75-0.45-0.75 0.8 0.1c0.233 0.066 0.367 0.184 0.4 0.35 0 0.167 0.1 0.301 0.3 0.4 0.2 0.134 0.383 0.167 0.55 0.1 0.733-0.133 1.184-0.133 1.35 0 0.2 0.134 0.7 0.4 1.5 0.801 0.467 0.3 1.25 0.449 2.35 0.449 0.2 0 0.5-0.05 0.9-0.149 0.367-0.066 0.667-0.017 0.9 0.149 1.1 0.8 1.567 1.25 1.4 1.35z" clip-rule="evenodd" fill="#59851F" fill-rule="evenodd"/>
<path d="m16.55 30.55c0.3-0.066 0.567-0.066 0.8 0 0.367 0.134 0.75 0.184 1.15 0.15l1.2 0.3c0.267 0.1 0.6 0.017 1-0.25 0.233-0.167 0.45-0.2 0.65-0.1l0.6 0.149 0.25 0.101 0.4 0.649c-0.1-0.033-0.217-0.066-0.35-0.1-0.233-0.066-0.417-0.084-0.55-0.05-0.3 0.133-0.8 0.25-1.5 0.35-0.167 0.066-0.45 0.066-0.85 0s-0.65-0.167-0.75-0.3c-0.133-0.167-0.233-0.283-0.3-0.351-0.1-0.1-0.25-0.116-0.45-0.05s-0.417 0.101-0.65 0.101c-0.267-0.034-0.434-0.034-0.5 0l-0.75 0.151c-0.1 0.033-0.184 0.05-0.25 0.05-0.067 0-0.067-0.033 0-0.1l0.45-0.55 0.4-0.15z" clip-rule="evenodd" fill="#59851F" fill-rule="evenodd"/>
<path d="m10.05 21.7c-0.067-0.167-0.083-0.35-0.05-0.55 0.067-0.267 0.1-0.417 0.1-0.45 0-0.134 0.083-0.217 0.25-0.25 0.2-0.033 0.367 0.017 0.5 0.149 0.133 0.134 0.167 0.284 0.1 0.45 0 0.101-0.034 0.217-0.1 0.351 0 0.133 0.433 0.399 1.3 0.8 0.367 0.233-0.083 0.267-1.35 0.1-0.4-0.067-0.65-0.267-0.75-0.6z" clip-rule="evenodd" fill="#59851F" fill-rule="evenodd"/>
<path d="m11.65 21.1c0.1 0.101 0.483 0.267 1.15 0.5 0.034 0.067 0 0.101-0.1 0.101-0.1 0.033-0.217 0-0.35-0.101-0.1-0.066-0.25-0.1-0.45-0.1s-0.35-0.033-0.45-0.1c-0.1-0.101-0.117-0.184-0.05-0.25 0.1-0.1 0.183-0.117 0.25-0.05z" clip-rule="evenodd" fill="#59851F" fill-rule="evenodd"/>
<path d="m11.7 23.05c0.433 0.3 0.4 0.767-0.1 1.4l-0.05-0.3c-0.033-0.101-0.233-0.301-0.6-0.601-0.1-0.066-0.117-0.267-0.05-0.6 0.033-0.101 0.15-0.134 0.35-0.101 0.167 0.036 0.317 0.102 0.45 0.202z" clip-rule="evenodd" fill="#59851F" fill-rule="evenodd"/>
<path d="m13.8 25.4c-0.2 0.199-0.35 0.283-0.45 0.25-0.2-0.067-0.45 0.083-0.75 0.449-0.033 0.034-0.067 0.134-0.1 0.301-0.033 0.066-0.117 0.083-0.25 0.05s-0.25-0.15-0.35-0.35l-0.15-0.25 0.05-0.75 2 0.3z" clip-rule="evenodd" fill="#59851F" fill-rule="evenodd"/>
<path d="m11.3 18.4c0.267-0.267 0.667-0.1 1.2 0.5 0.067 0.067 0.167 0.1 0.3 0.1 0.2 0 0.467 0.117 0.8 0.35 1.133 0.867 1.717 1.317 1.75 1.35 0.4 0.399 1 0.783 1.8 1.149-1.3-0.533-2.233-0.883-2.8-1.05-0.6-0.166-1.2-0.434-1.8-0.8l-0.8-0.45c-0.367-0.233-0.5-0.4-0.4-0.5 0.2-0.133 0.233-0.3 0.1-0.5-0.034-0.033-0.1-0.05-0.2-0.05-0.033 1e-3 -0.017-0.032 0.05-0.099z" clip-rule="evenodd" fill="#59851F" fill-rule="evenodd"/>
<path d="m11.35 16.1l1.2 0.5c0.467 0.133 0.75 0.25 0.85 0.35l0.45 0.55c0.267 0.333 0.75 0.833 1.45 1.5-0.7-0.4-1.233-0.767-1.6-1.1-0.367-0.367-0.833-0.617-1.4-0.75-0.4-0.133-0.667-0.35-0.8-0.65-0.067-0.067-0.133-0.167-0.2-0.3s-0.05-0.167 0.05-0.1z" clip-rule="evenodd" fill="#59851F" fill-rule="evenodd"/>
<path d="m14.65 0.4c-0.066 0.1-0.117 0.2-0.15 0.3-0.067 0.233-0.05 0.433 0.05 0.6s0.233 0.35 0.4 0.55c0.066 0.133 0.05 0.233-0.05 0.3-0.167 0.133-0.283 0.217-0.35 0.25-0.133 0.1-0.167 0.2-0.1 0.3 0.367 0.433 0.583 0.733 0.65 0.9 0.2 0.533 0.267 0.833 0.2 0.9l-0.2 0.9-0.05 2c0.067 0.267 0.2 0.583 0.4 0.95s0.333 0.767 0.4 1.2c-0.8-0.966-1.2-1.7-1.2-2.2 0-0.267-0.033-0.567-0.1-0.9-0.066-0.267-0.1-0.483-0.1-0.65 0-0.066 0.05-0.2 0.15-0.4 0-0.066-0.017-0.217-0.05-0.45-0.033-0.633-0.1-1.017-0.2-1.15-0.267-0.333-0.383-0.583-0.35-0.75l-0.1-0.8c0.033-0.1 0.033-0.25 0-0.45l-0.45-1.1-0.05-0.25 0.65 0.1 0.6-0.15z" clip-rule="evenodd" fill="#59851F" fill-rule="evenodd"/>
<path d="m12.7 5.3c0.133 0.434 0.25 0.95 0.35 1.55l-0.75-2-0.3-1.95c-0.033-0.5-0.1-0.816-0.2-0.95l-0.55-0.8-0.35-0.9c0.633 0 1.067 0.317 1.3 0.95 0.133 0.5 0.233 1.05 0.3 1.65 0.067 0.333 0.133 1.15 0.2 2.45z" clip-rule="evenodd" fill="#59851F" fill-rule="evenodd"/>
<path d="m10.25 3.35c0.233-0.133 0.683-0.317 1.35-0.55l-0.4 0.25 0.1 0.85-0.15 1.35c0 0.167 0.1 0.583 0.3 1.25 0.066 0.2 0.216 0.383 0.45 0.55l0.55 0.45c0.2 0.2 0.7 1 1.5 2.4 0.267 0.5 0.917 1.333 1.95 2.5-0.233 0.033-0.55-0.2-0.95-0.7l-1.15-1.45c-0.933-0.933-1.566-1.65-1.9-2.15l-1-1.45c-0.333-0.4-0.583-0.867-0.75-1.4l0.1-1.9z" clip-rule="evenodd" fill="#59851F" fill-rule="evenodd"/>
<path d="m10.8 10.8l1.2 1.8c-0.9-0.4-1.4-0.767-1.5-1.1-0.3-0.767-0.433-1.217-0.4-1.35s-0.233-0.55-0.8-1.25c-0.333-0.333-0.55-0.567-0.65-0.7l-0.15-0.5 0.1-0.45c0.467 0.667 0.983 1.15 1.55 1.45 0.3 0.167 0.467 0.25 0.5 0.25 0.1 0.133 0.133 0.35 0.1 0.65-0.033 0.433-0.017 0.833 0.05 1.2z" clip-rule="evenodd" fill="#59851F" fill-rule="evenodd"/>
<path d="m7.75 7.95c0.2 0.066 0.333 0.167 0.4 0.3l0.85 1.25c-0.133 0.067-0.383-0.033-0.75-0.3-0.2-0.167-0.5-0.3-0.9-0.4-0.231-0.058-0.39-0.066-0.475-0.025l0.625-0.925 0.25 0.1z" clip-rule="evenodd" fill="#59851F" fill-rule="evenodd"/>
<polygon points="3.3 11.25 1.1 11.2 0.9 10.45 1.05 10" clip-rule="evenodd" fill="#59851F" fill-rule="evenodd"/>
<path d="m20.65 7.6c0.2 0.066 0.2 0.15 0 0.25-0.267 0.1-0.433 0.167-0.5 0.2l-0.2 0.45 0.6 1.05c0.133 0.3 0.184 0.5 0.15 0.6 0 0.033-0.034 0.1-0.1 0.2 0 0.833 0.117 1.467 0.35 1.9 0.167 0.3 0.5 1.2 1 2.7l-2.1-3.25c0.1-0.567 0.117-0.95 0.05-1.15 0-0.133-0.133-0.367-0.4-0.7-0.333-0.467-0.567-0.833-0.7-1.1-0.2-0.3-0.25-0.567-0.15-0.8 0.2-0.4 0.3-0.733 0.3-1 0.033-0.9 0.15-1.8 0.35-2.7l0.65 0.85c0.1 0.1 0.05 0.35-0.15 0.75l0.2 1.3c0.033 0.133 0.25 0.283 0.65 0.45z" clip-rule="evenodd" fill="#59851F" fill-rule="evenodd"/>
<path d="m20.55 6.85l-0.15-1.3c-0.033-0.233-0.05-0.433-0.05-0.6 0.033-0.3 0.167-0.217 0.4 0.25 0.2 0.367 0.367 0.617 0.5 0.75 0.067 0.066 0.083 0.167 0.05 0.3-0.033 0.267-0.283 0.467-0.75 0.6z" clip-rule="evenodd" fill="#59851F" fill-rule="evenodd"/>
<path d="m21.2 8.4c0.433 0.667 0.633 1.083 0.6 1.25 0 0.167-0.117 0.167-0.35 0l-0.7-0.85c-0.067-0.066-0.017-0.15 0.15-0.25 0.1-0.067 0.2-0.117 0.3-0.15z" clip-rule="evenodd" fill="#59851F" fill-rule="evenodd"/>
<path d="m18.85 17.75l-0.8-1.6 1.6 1.85c1.033 1.067 2.417 2.866 4.15 5.4 0.333 0.466 1.05 1.133 2.15 2 1.1 0.833 1.833 1.517 2.2 2.05s1 0.983 1.9 1.35c0.934 0.4 1.65 0.884 2.15 1.45 1 1.134 2.583 2.65 4.75 4.55l0.05 0.55c0 0.634-0.083 1.15-0.25 1.551-0.3 0.666-0.45 1.083-0.45 1.25l-0.75-0.2c-0.2-0.101-0.934-0.95-2.2-2.55-0.6-0.801-1.233-1.483-1.899-2.051-0.3-0.267-0.717-0.683-1.25-1.25-0.5-0.566-0.967-1.033-1.4-1.399-0.433-0.334-0.9-0.884-1.4-1.65-0.667-1.1-1.217-1.899-1.65-2.399-2.033-2.267-3.633-4.15-4.8-5.65-0.734-0.902-1.434-1.985-2.101-3.252z" clip-rule="evenodd" fill="#D1D5A7" fill-rule="evenodd"/>
<path d="m36.55 36.7c-0.339 0-0.422-0.217-0.25-0.65 0.129 0.203 0.212 0.42 0.25 0.65zm-2.15-3c-0.434-0.566-1-1.117-1.7-1.65-0.767-0.533-1.284-0.916-1.55-1.149-0.7-0.467-1.267-0.851-1.7-1.15-0.833-0.566-1.45-1.066-1.85-1.5-0.4-0.4-0.983-1.083-1.75-2.05l-1.05-1.351 1.8 1.601 1.5 1.5c0.6 0.633 1.083 1.066 1.45 1.3 1.934 1.167 3.334 2.25 4.2 3.25l1.3 1.2c0.533 0.533 0.851 0.866 0.95 1 0.4 0.5 0.517 0.916 0.35 1.25-0.018 0.038-0.034 0.071-0.05 0.1-0.092-0.139-0.208-0.272-0.35-0.399-0.2-0.167-0.384-0.367-0.55-0.601-0.466-0.634-0.8-1.084-1-1.351z" clip-rule="evenodd" fill="#EEEFE7" fill-rule="evenodd"/>
<path d="m21.5 20.55c0.567 1.101 0.683 1.483 0.35 1.15-0.3-0.3-0.7-0.816-1.2-1.55l-1.8-2.851 0.8 0.7c0.5 0.368 1.117 1.218 1.85 2.551z" clip-rule="evenodd" fill="#EEEFE7" fill-rule="evenodd"/>
<path d="m35.4 36.55c0.5 0.733 0.666 1.066 0.5 1-0.4-0.333-0.75-0.616-1.051-0.85-0.5-0.4-0.966-0.867-1.399-1.4-0.5-0.633-0.733-1.1-0.7-1.399 0.033-0.267 0.35-0.084 0.95 0.55 0.533 0.566 1.1 1.266 1.7 2.099z" clip-rule="evenodd" fill="#EEEFE7" fill-rule="evenodd"/>
<path d="m7.15 5.95c0.033 0.133 0.267 0.367 0.7 0.7 0.367 0.3 0.5 0.5 0.4 0.6-0.1 0.133-0.55-0.083-1.35-0.65-0.167-0.133-0.167-0.3 0-0.5 0.133-0.233 0.217-0.283 0.25-0.15z" clip-rule="evenodd" fill="#7BB334" fill-rule="evenodd"/>
<path d="m24.3 8.7l-0.2 0.45c-0.1 0.367-0.083 0.684 0.05 0.95 0.167 0.267 0.217 0.467 0.15 0.6-0.033 0.066-0.1 0.167-0.2 0.3-0.067 0.133 0 0.317 0.2 0.55 0.133 0.1 0.25 0.184 0.35 0.25h1.4l-0.85 2.6c-0.067 0.4-0.034 0.967 0.1 1.7l-1.1-0.95c-0.1-0.1-0.4-0.733-0.9-1.9-0.133-0.367-0.267-0.617-0.4-0.75-0.066-0.033-0.217-0.083-0.45-0.15-0.133-0.033-0.117-0.317 0.05-0.85 0.233-0.667 0.367-1.117 0.4-1.35 0.267-1.066 0.417-1.733 0.45-2 0.033-0.233 0.15-0.283 0.35-0.15 0.233 0.133 0.433 0.367 0.6 0.7z" clip-rule="evenodd" fill="#7BB334" fill-rule="evenodd"/>
<path d="m25.15 8.95c0.1 0.367 0.267 0.733 0.5 1.1 0.167 0.2 0.2 0.333 0.1 0.4-0.467 0.167-0.733 0.2-0.8 0.1-0.133-0.167-0.233-0.517-0.3-1.05-0.033-0.267 0.033-0.467 0.2-0.6 0.167-0.1 0.267-0.083 0.3 0.05z" clip-rule="evenodd" fill="#7BB334" fill-rule="evenodd"/>
<path d="m23.75 16l1.45 2 0.85 0.5c0.6 0.4 0.983 0.717 1.15 0.95 0.2 0.267 0.216 0.383 0.05 0.35-0.2-0.066-0.433-0.233-0.7-0.5-0.233-0.233-0.466-0.233-0.7 0l-0.25 0.4-1.2-0.15c-0.233-0.033-0.383-0.117-0.45-0.25-0.067-0.333-0.184-0.7-0.35-1.1l-0.6-1.95 0.75-0.25z" clip-rule="evenodd" fill="#7BB334" fill-rule="evenodd"/>
<path d="m25.45 20.65c0.267 0.533 0.4 0.866 0.4 1-0.033 0.133-0.2 0.267-0.5 0.399-0.233 0.101-0.417 0.066-0.55-0.1-0.133-0.3-0.267-0.55-0.4-0.75-0.167-0.267-0.283-0.733-0.35-1.4-0.033-0.267 0.15-0.267 0.55 0s0.683 0.551 0.85 0.851z" clip-rule="evenodd" fill="#7BB334" fill-rule="evenodd"/>
<path d="m23.15 18.25c0.2 0.433 0.25 0.783 0.15 1.05-0.066 0.267-0.183 0.284-0.35 0.05l-0.8-1.3c-0.1-0.133-0.117-0.35-0.05-0.65l0.1-0.65c0.033-0.133 0.167 0 0.4 0.4 0.233 0.367 0.417 0.733 0.55 1.1z" clip-rule="evenodd" fill="#7BB334" fill-rule="evenodd"/>
<path d="m21.65 15.85c0 0.4 0.033 0.717 0.1 0.95 0.167 0.267 0.117 0.317-0.15 0.15-0.233-0.2-0.45-0.567-0.65-1.1-0.2-0.633-0.517-1.25-0.95-1.85-0.2-0.3-0.35-0.717-0.45-1.25l-0.1-0.7 1.95 2.8c0.2 0.3 0.283 0.633 0.25 1z" clip-rule="evenodd" fill="#7BB334" fill-rule="evenodd"/>
<path d="m20.35 15.5c0.267 0.5 0.4 0.9 0.4 1.2-0.667-0.6-1.083-1.15-1.25-1.65-0.1-0.333-0.017-0.4 0.25-0.2 0.233 0.167 0.433 0.383 0.6 0.65z" clip-rule="evenodd" fill="#7BB334" fill-rule="evenodd"/>
<path d="m18.55 3.3c0.233 0.367 0.333 0.6 0.3 0.7 0 0.067-0.067 0.183-0.2 0.35-0.066 0.133-0.117 0.367-0.15 0.7v1c-0.067 0.8-0.2 1.483-0.4 2.05-0.1 0.3-0.067 0.816 0.1 1.55 0.066 0.333 0.15 0.65 0.25 0.95-0.333-0.934-0.633-1.533-0.9-1.8-0.167-0.2-0.216-0.4-0.15-0.6 0.133-0.267 0.233-0.517 0.3-0.75 0.2-0.534 0.3-1.4 0.3-2.6 0-0.434 0.033-0.833 0.1-1.2 0.1-0.567 0.25-0.683 0.45-0.35z" clip-rule="evenodd" fill="#7BB334" fill-rule="evenodd"/>
<path d="m13.35 1.25l0.2 1.3c0.1 0.467 0.05 0.767-0.15 0.9l0.35 0.9 0.4 1.75c0.167 0.5 0.333 1.35 0.5 2.55l-0.65-0.95c-0.2-0.267-0.383-0.917-0.55-1.95-0.034-0.533-0.067-0.867-0.1-1 0-0.233-0.083-0.467-0.25-0.7-0.133-0.2-0.167-0.433-0.1-0.7 0.1-0.367 0.15-0.667 0.15-0.9-0.033-0.534-0.217-1.117-0.55-1.75l0.25 0.05c0.167 0.1 0.333 0.267 0.5 0.5z" clip-rule="evenodd" fill="#7BB334" fill-rule="evenodd"/>
<path d="m11 7.85l1.35 1.4 0.2 0.8c0.034 0.067 0.333 0.65 0.9 1.75 0.3 0.467 0.4 0.784 0.3 0.95l-0.85-0.9-1.05-1.75c-0.1-0.367-0.133-0.717-0.1-1.05 0-0.133-0.017-0.2-0.05-0.2-0.133 0-0.3-0.067-0.5-0.2-0.167-0.1-0.25-0.167-0.25-0.2 0.033-0.067-0.017-0.2-0.15-0.4l-1.75-2.1c-0.133-0.1-0.15-0.3-0.05-0.6s0.2-0.45 0.3-0.45c0.467 0.067 0.633 0.35 0.5 0.85l0.15 0.7c0.233 0.467 0.583 0.933 1.05 1.4z" clip-rule="evenodd" fill="#7BB334" fill-rule="evenodd"/>
</svg>
