<svg viewBox="0 0 64.9 39.9" xmlns="http://www.w3.org/2000/svg"><linearGradient id="a" x1="7.771" x2="50.586" y1="2.783" y2="2.783" gradientTransform="rotate(39.79 0 0)" gradientUnits="userSpaceOnUse"><stop stop-color="#669624" offset="0"/><stop stop-color="#648F29" offset="1"/></linearGradient><path d="M20.4 3.85c.333.233.533.35.6.35.167.066.467.117.9.15.3.033.65-.017 1.05-.15.2-.067.25 0 .15.2-.2.5.333 1.167 1.6 2 .566.4.917.7 1.05.9.1.233.517.3 1.25.2l-.15.35c-.1.267-.067.483.1.65.133.133.333.217.6.25s.467.15.6.35c.2.233.184.6-.05 1.1-.233.466-.517.85-.85 1.15-.2.167-.567.7-1.1 1.6-.133.2-.167.4-.1.6l.2.6c.033.233.017.467-.05.7l-.3.9c-.1.367-.1.633 0 .8.067.1.2.267.4.5.367.567.767.95 1.2 1.15.333.133.717.683 1.15 1.65.333.7.483 1.067.45 1.1.133.166.283.35.45.55s.267.45.3.75c.066 1 .117 1.566.15 1.7.1.333.017.833-.25 1.5-.033.3.05.5.25.6.1.101.283.2.55.3.2.101.284.267.25.5 0 .101-.033.25-.1.45-.034.134.233.316.8.55.1.067.283.134.55.2.233.066.351.134.351.2 0 .5.183.833.55 1 .366.167.6.333.7.5l.149.4c.101.267.316.433.65.5.166.133.416.449.75.949.166.2.35.134.55-.199l.15.9c.033.2.166.467.399.8l.601.75c.1.167.05.483-.15.95-.267.601-.4.983-.4 1.15-.033 0-.083.05-.149.149C36.1 36.3 36 36.6 35.9 37c-.233 1.1-.5 1.967-.801 2.6-.166.301-.3.367-.399.2l-.25-.45c-.2 0-.367-.033-.5-.1-.267-.1-.45-.333-.55-.7l-.25-.7-1.3.601a.436.436 0 01-.45-.05 44.146 44.146 0 00-.6-.851c-.2-.333-.5-.666-.9-1-.533-.399-.85-.666-.95-.8a2.1 2.1 0 00-.95-.55c-.3-.066-.483-.117-.55-.15-.233-.133-.7 0-1.4.4-.267.166-.417-.066-.45-.7l-.95.2c-.4.133-.533-.25-.4-1.15.067-.399 0-.6-.2-.6-.267.1-.483.133-.65.1s-.25-.133-.25-.3c.033-.167.05-.283.05-.35.033-.101-.067-.301-.3-.601-.2-.267-.4-.467-.6-.6a.538.538 0 00-.5-.15l-.9.2c-.9.233-1.533.217-1.9-.05-.267-.167-.667-.351-1.2-.55-.3-.101-.683-.101-1.15 0l-.65.151c.3-.366.367-.666.2-.899a1.052 1.052 0 00-.55-.351c-.267-.066-.816-.116-1.65-.149-.833-.034-1.417-.101-1.75-.2-.3-.101-.75-.4-1.35-.9-.533-.434-.9-.666-1.1-.7-.367.034-.8.034-1.3 0-.633-.033-.983-.133-1.05-.3a1.6 1.6 0 00-.3-.7c-.2-.233-.183-.366.05-.399.4-.066.65-.134.75-.2.233-.167.216-.35-.05-.55l-1.7-1c-.733-.4-1.4-.55-2-.45-.534.233-.9.366-1.1.4-.233.033-.317.033-.25 0 .2-.134.383-.25.55-.351.667-.399 1.017-.916 1.05-1.55.066-1.233-.284-1.767-1.05-1.6-.4.1-.8-.301-1.2-1.2-.367-.733-.583-1.367-.65-1.9-.033-.233.1-.483.4-.75.367-.3.583-.617.65-.95.1-.467.033-.767-.2-.9-.133-.1-.417-.167-.85-.2-.233-.034-.25-.118-.05-.251.4-.3.65-.517.75-.65.3-.3.45-.5.45-.6.033-.133-.1-.217-.4-.25-.433-.033-.9.233-1.4.8-.1-.2-.117-.633-.05-1.3.033-.333-.1-.7-.4-1.1s-.434-.783-.4-1.15c.033-.4.083-.65.15-.75.133-.2.233-.367.3-.5.1-.333.467-.4 1.1-.2.566.2 1.2.55 1.9 1.05.533.367 1.033.433 1.5.2.233-.133.417-.3.55-.5.167-.2.067-.533-.3-1a.972.972 0 01-.1-.95c.267-.6.4-.95.4-1.05.067-.333.017-.617-.15-.85-.133-.133-.15-.233-.05-.3.067-.033.283-.033.65 0 .3 0 .567-.117.8-.35s.25-.45.05-.65c-.2-.167-.233-.283-.1-.35.133-.066.5-.15 1.1-.25.6-.133.95-.233 1.05-.3s.117-.25.05-.55c-.067-.367-.05-.633.05-.8.133-.233.3-.367.5-.4.167-.033.3 0 .4.1.033.033.05.25.05.65 0 .367.1.483.3.35.367-.2.917-.45 1.65-.75.1-.067-.083-.483-.55-1.25-.4-.7-.55-1.067-.45-1.1.567-.133.883-.2.95-.2.467-.066.85 0 1.15.2.267.233.583.333.95.3.2 0 .433-.05.7-.15.767-.1 1.3.167 1.6.8.133.3.333.533.6.7.3.167.467.267.5.3.1.133.267.2.5.2.167 0 .467-.017.9-.05.233.033.367.15.4.35 0 .3.033.483.1.55.1.133.267.233.5.3.3.1.517.2.65.3z" clip-rule="evenodd" fill="url(#a)" fill-rule="evenodd"/><path d="M21.65 18.15l-.75-.9.2-.45c.2-.233.417-.233.65 0 .333.267.75.833 1.25 1.7.533.867.833 1.5.9 1.9.267 1.066.817 2.183 1.65 3.35.5.733 1.017 1.15 1.55 1.25.167-.533.183-1.233.05-2.1a76.073 76.073 0 00-.35-1.75c-.1-.467-.033-.634.2-.5.233.166.533.616.9 1.35.333.733.517 1.333.55 1.8.066.3.117.834.15 1.601.066.699.2 1.216.4 1.55.4.666 1.017 1.033 1.85 1.1.667.101 1.317.601 1.95 1.5.367.566.934 1.184 1.7 1.851.167.267.983 1.166 2.45 2.699v.7c0 .167-.2.55-.601 1.15-.233.399-.3.6-.199.6v1.3c.066.467-.25 1.117-.95 1.95l-.1-.201c.101-.699.084-1.116-.05-1.25-.267-.366-.85-.8-1.75-1.3-.467-.267-.9-.35-1.3-.25-.4.066-.7.033-.9-.1-.333-.2-.45-.384-.35-.55.1-.134.3-.233.6-.301l.8-.199c.199-.167.066-.45-.4-.851-.467-.434-.95-.7-1.45-.8l-1.5-.25c-.167-.033-.783-.1-1.85-.2-.767-.066-1.367-.217-1.8-.45a3.012 3.012 0 01-1.15-1l-.3-.6 2.8.2c.7.166 1.917.616 3.65 1.35a22.413 22.413 0 00-2.3-1.95c-.333-.267-.934-.449-1.8-.55-.9-.066-1.583-.249-2.05-.549-.567-.333-1.267-.583-2.1-.75-.867-.1-1.467-.184-1.8-.25-.567-.134-1.417-.434-2.55-.9-1.2-.533-1.9-.933-2.1-1.199-.2-.267-.133-.517.2-.75.3-.267.633-.384 1-.351.3.033 1.184.351 2.65.95 1.333.566 2.367 1.033 3.1 1.4l1 .5c.067 0-.1-.217-.5-.65-.233-.267-.7-.566-1.4-.9-.7-.366-1.25-.767-1.65-1.199-.5-.5-1.184-.884-2.05-1.15-1.066-.2-1.9-.4-2.5-.6-.733-.233-1.233-.617-1.5-1.15l-.2-.7 2.25.45c1.566.366 2.467.616 2.7.75L22.6 26c-.967-1.667-1.583-2.684-1.85-3.05-1.1-1.634-1.983-2.684-2.65-3.15-1.867-1.2-3.2-2.233-4-3.1l-3.5-3.75 1.3 1.15c.434.233 1.5 1 3.2 2.3.733.567 1.833 1.133 3.3 1.7-1.533-1.8-2.55-3.067-3.05-3.8a8.411 8.411 0 01-.8-1.35l-.2-.55.6.35c.433.333.767.65 1 .95.333.5 1.483 1.533 3.45 3.1l-.45-.9a36.062 36.062 0 01-2.1-3.9c-.4-.933-.5-1.617-.3-2.05.233-.434.534-.467.9-.1.3.3.55.717.75 1.25.133.367.35 1.05.65 2.05.233.667.783 1.983 1.65 3.95.367.833 1.35 2.333 2.95 4.5-.3-.5-.55-1.1-.75-1.8-.133-.433-.483-.983-1.05-1.65z" clip-rule="evenodd" fill="#779E39" fill-rule="evenodd"/><path d="M7.15 10.1c.067.1.4.233 1 .4.4.1.467.333.2.7.133 0 .3-.067.5-.2a.552.552 0 01.55-.1c.067.233.167.684.3 1.35.1.567.233 1.033.4 1.4-.2.067-.6-.017-1.2-.25-.066.233.083.4.45.5.467.133.733.317.8.55a.535.535 0 01-.45 0c-.2-.133-.35-.217-.45-.25-.033.367.217.617.75.75.6.167.967.35 1.1.55-.167.133-.483.083-.95-.15-.367-.167-.6-.083-.7.25-.233.066-.367-.033-.4-.3 0-.233-.083-.333-.25-.3-.1.367-.333.433-.7.2-.633-.434-1.017-.667-1.15-.7.367-.067.633-.033.8.1.167-.1.15-.184-.05-.25-.233-.033-.35-.133-.35-.3.067-.033.233-.05.5-.05.133 0 .233-.1.3-.3l-1.65-.55c-.133.133-.167.35-.1.65.1.333.117.55.05.65-.3 0-.75.1-1.35.3l-.05-.85a.98.98 0 00.75-.1c.2-.133.284-.333.25-.6.4-.267.85-.3 1.35-.1.567.233.983.316 1.25.25-.233-.167-.95-.367-2.15-.6-.933-.2-1.483-.617-1.65-1.25.6-.1 1-.133 1.2-.1.267.067.467.25.6.55.633-.533 1.017-.95 1.15-1.25-.233-.067-.383-.167-.45-.3l-.2.8c-.133.1-.267.1-.4 0-.167-.133-.3-.167-.4-.1l.5-.4c.333-.267.4-.517.2-.75.1-.034.15-.034.15 0 0 .067-.017.117-.05.15zm.25 2.05c0 .167.067.317.2.45.566-.367.783-.667.65-.9-.167.2-.333.25-.5.15-.233-.133-.4-.167-.5-.1.1.1.15.233.15.4zm-.1 4.15l-.7-.4.3-.2c.2-.1.333-.133.4-.1l1.05.4c.267.133.433.117.5-.05l1.65.5c.2.033.317.117.35.25.033.1-.017.183-.15.25-.233.066-.717-.017-1.45-.25-.333-.1-.55-.133-.65-.1-.2.033-.317.05-.35.05-.167 0-.483-.117-.95-.35zm-1.25.6c.133-.066.617-.017 1.45.15.167 0 .467.017.9.05h.75c.667.033 1.283.333 1.85.9l-.4-.1c-.333-.2-.767-.316-1.3-.35-.367-.033-.617-.017-.75.05l-.15.15-.05.1c-.033.067-.017.15.05.25.133.133.583.267 1.35.4.3.067.417.233.35.5h-.45c-.3.033-.5.083-.6.15s-.1.2 0 .4c.067.133.184.333.35.601.133.3.167.75.1 1.35l.25.95c.033.166.267.7.7 1.6l.65.75c.033.033.083.217.15.55.1.367.2.65.3.851.167.434.684.883 1.55 1.35-1.033-.3-1.684-.6-1.95-.899-.167-.2-.316-.317-.45-.351-.067-.033-.217-.033-.45 0-.667.066-1.15.05-1.45-.05-.2-.1-.45-.15-.75-.15-.133.034-.183.034-.15 0 .1-.066-.033-.25-.4-.55s-.8-.583-1.3-.85c-.567-.3-.95-.467-1.15-.5-.233-.033-.617.033-1.15.2-.733.267-1.083.333-1.05.199l1.4-1 .05.25c.067.167.184.233.35.2.2 0 .567-.116 1.1-.35.367-.167.717-.233 1.05-.2.167.033.367.066.6.1.167 0 .35-.233.55-.699.233-.5.383-.983.45-1.45.067-.4-.017-.617-.25-.65-.7-.133-1.1-.217-1.2-.25-.967-.366-1.434-.566-1.4-.6.767-.2 1.5-.233 2.2-.1.233.033.333-.083.3-.35s-.167-.6-.4-1c-.2-.3-.566-.483-1.1-.55-.7-.034-1.267-.067-1.7-.1-.5-.067-.483-.217.05-.45.667-.269 1.05-.435 1.15-.502zm11 13.05c-.066.066-.233.083-.5.05-.5-.1-.767-.15-.8-.15h-2.1c-.7.067-1.15.067-1.35 0-.533-.233-.917-.483-1.15-.75-.167-.199-.45-.416-.85-.649-.433-.234-.75-.351-.95-.351-.167.034-.35.016-.55-.05a4.662 4.662 0 00-.65-.05c-.333.066-.55.1-.65.1s-.167-.067-.2-.2l-.25-.75-.45-.75.8.1c.233.066.367.184.4.35 0 .167.1.301.3.4.2.134.383.167.55.1.733-.133 1.184-.133 1.35 0 .2.134.7.4 1.5.801.467.3 1.25.449 2.35.449.2 0 .5-.05.9-.149.367-.066.667-.017.9.149 1.1.8 1.567 1.25 1.4 1.35zm-.5.6c.3-.066.567-.066.8 0 .367.134.75.184 1.15.15l1.2.3c.267.1.6.017 1-.25.233-.167.45-.2.65-.1l.6.149.25.101.4.649a5.428 5.428 0 00-.35-.1c-.233-.066-.417-.084-.55-.05-.3.133-.8.25-1.5.35-.167.066-.45.066-.85 0s-.65-.167-.75-.3a4.84 4.84 0 00-.3-.351c-.1-.1-.25-.116-.45-.05s-.417.101-.65.101c-.267-.034-.434-.034-.5 0l-.75.151a.837.837 0 01-.25.05c-.067 0-.067-.033 0-.1l.45-.55.4-.15z" clip-rule="evenodd" fill="#59851F" fill-rule="evenodd"/><path d="M10.05 21.7a1.01 1.01 0 01-.05-.55c.067-.267.1-.417.1-.45 0-.134.083-.217.25-.25.2-.033.367.017.5.149.133.134.167.284.1.45a.818.818 0 01-.1.351c0 .133.433.399 1.3.8.367.233-.083.267-1.35.1-.4-.067-.65-.267-.75-.6z" clip-rule="evenodd" fill="#59851F" fill-rule="evenodd"/><path d="M11.65 21.1c.1.101.483.267 1.15.5.034.067 0 .101-.1.101-.1.033-.217 0-.35-.101-.1-.066-.25-.1-.45-.1s-.35-.033-.45-.1c-.1-.101-.117-.184-.05-.25.1-.1.183-.117.25-.05zm.05 1.95c.433.3.4.767-.1 1.4l-.05-.3c-.033-.101-.233-.301-.6-.601-.1-.066-.117-.267-.05-.6.033-.101.15-.134.35-.101.167.036.317.102.45.202zm2.1 2.35c-.2.199-.35.283-.45.25-.2-.067-.45.083-.75.449-.033.034-.067.134-.1.301-.033.066-.117.083-.25.05s-.25-.15-.35-.35l-.15-.25.05-.75 2 .3zm-2.5-7c.267-.267.667-.1 1.2.5.067.067.167.1.3.1.2 0 .467.117.8.35 1.133.867 1.717 1.317 1.75 1.35.4.399 1 .783 1.8 1.149-1.3-.533-2.233-.883-2.8-1.05-.6-.166-1.2-.434-1.8-.8l-.8-.45c-.367-.233-.5-.4-.4-.5.2-.133.233-.3.1-.5-.034-.033-.1-.05-.2-.05-.033.001-.017-.032.05-.099zm.05-2.3l1.2.5c.467.133.75.25.85.35l.45.55c.267.333.75.833 1.45 1.5-.7-.4-1.233-.767-1.6-1.1-.367-.367-.833-.617-1.4-.75-.4-.133-.667-.35-.8-.65-.067-.067-.133-.167-.2-.3s-.05-.167.05-.1zM14.65.4c-.066.1-.117.2-.15.3-.067.233-.05.433.05.6s.233.35.4.55c.066.133.05.233-.05.3a2.5 2.5 0 01-.35.25c-.133.1-.167.2-.1.3.367.433.583.733.65.9.2.533.267.833.2.9l-.2.9-.05 2c.067.267.2.583.4.95s.333.767.4 1.2c-.8-.966-1.2-1.7-1.2-2.2 0-.267-.033-.567-.1-.9a2.847 2.847 0 01-.1-.65c0-.066.05-.2.15-.4 0-.066-.017-.217-.05-.45-.033-.633-.1-1.017-.2-1.15-.267-.333-.383-.583-.35-.75l-.1-.8c.033-.1.033-.25 0-.45L13.45.7 13.4.45l.65.1.6-.15zM12.7 5.3c.133.434.25.95.35 1.55l-.75-2L12 2.9c-.033-.5-.1-.816-.2-.95l-.55-.8-.35-.9c.633 0 1.067.317 1.3.95.133.5.233 1.05.3 1.65.067.333.133 1.15.2 2.45z" clip-rule="evenodd" fill="#59851F" fill-rule="evenodd"/><path d="M10.25 3.35c.233-.133.683-.317 1.35-.55l-.4.25.1.85-.15 1.35c0 .167.1.583.3 1.25.066.2.216.383.45.55l.55.45c.2.2.7 1 1.5 2.4.267.5.917 1.333 1.95 2.5-.233.033-.55-.2-.95-.7l-1.15-1.45c-.933-.933-1.566-1.65-1.9-2.15l-1-1.45a4.058 4.058 0 01-.75-1.4l.1-1.9zm.55 7.45l1.2 1.8c-.9-.4-1.4-.767-1.5-1.1-.3-.767-.433-1.217-.4-1.35s-.233-.55-.8-1.25c-.333-.333-.55-.567-.65-.7l-.15-.5.1-.45c.467.667.983 1.15 1.55 1.45.3.167.467.25.5.25.1.133.133.35.1.65-.033.433-.017.833.05 1.2zM7.75 7.95c.2.066.333.167.4.3L9 9.5c-.133.067-.383-.033-.75-.3-.2-.167-.5-.3-.9-.4-.231-.058-.39-.066-.475-.025L7.5 7.85l.25.1zm-4.45 3.3l-2.2-.05-.2-.75.15-.45zM20.65 7.6c.2.066.2.15 0 .25-.267.1-.433.167-.5.2l-.2.45.6 1.05c.133.3.184.5.15.6 0 .033-.034.1-.1.2 0 .833.117 1.467.35 1.9.167.3.5 1.2 1 2.7l-2.1-3.25c.1-.567.117-.95.05-1.15 0-.133-.133-.367-.4-.7-.333-.467-.567-.833-.7-1.1-.2-.3-.25-.567-.15-.8.2-.4.3-.733.3-1 .033-.9.15-1.8.35-2.7l.65.85c.1.1.05.35-.15.75l.2 1.3c.033.133.25.283.65.45z" clip-rule="evenodd" fill="#59851F" fill-rule="evenodd"/><path d="M20.55 6.85l-.15-1.3a4.382 4.382 0 01-.05-.6c.033-.3.167-.217.4.25.2.367.367.617.5.75.067.066.083.167.05.3-.033.267-.283.467-.75.6zm.65 1.55c.433.667.633 1.083.6 1.25 0 .167-.117.167-.35 0l-.7-.85c-.067-.066-.017-.15.15-.25.1-.067.2-.117.3-.15z" clip-rule="evenodd" fill="#59851F" fill-rule="evenodd"/><path d="M18.85 17.75l-.8-1.6 1.6 1.85c1.033 1.067 2.417 2.866 4.15 5.4.333.466 1.05 1.133 2.15 2 1.1.833 1.833 1.517 2.2 2.05s1 .983 1.9 1.35c.934.4 1.65.884 2.15 1.45 1 1.134 2.583 2.65 4.75 4.55l.05.55c0 .634-.083 1.15-.25 1.551-.3.666-.45 1.083-.45 1.25l-.75-.2c-.2-.101-.934-.95-2.2-2.55a12.622 12.622 0 00-1.899-2.051c-.3-.267-.717-.683-1.25-1.25-.5-.566-.967-1.033-1.4-1.399-.433-.334-.9-.884-1.4-1.65-.667-1.1-1.217-1.899-1.65-2.399-2.033-2.267-3.633-4.15-4.8-5.65-.734-.902-1.434-1.985-2.101-3.252z" clip-rule="evenodd" fill="#D1D5A7" fill-rule="evenodd"/><path d="M36.55 36.7c-.339 0-.422-.217-.25-.65.129.203.212.42.25.65zm-2.15-3c-.434-.566-1-1.117-1.7-1.65-.767-.533-1.284-.916-1.55-1.149-.7-.467-1.267-.851-1.7-1.15-.833-.566-1.45-1.066-1.85-1.5-.4-.4-.983-1.083-1.75-2.05L24.8 24.85l1.8 1.601 1.5 1.5c.6.633 1.083 1.066 1.45 1.3 1.934 1.167 3.334 2.25 4.2 3.25l1.3 1.2c.533.533.851.866.95 1 .4.5.517.916.35 1.25a1.857 1.857 0 01-.05.1 2.07 2.07 0 00-.35-.399 3.158 3.158 0 01-.55-.601c-.466-.634-.8-1.084-1-1.351zM21.5 20.55c.567 1.101.683 1.483.35 1.15-.3-.3-.7-.816-1.2-1.55l-1.8-2.851.8.7c.5.368 1.117 1.218 1.85 2.551zm13.9 16c.5.733.666 1.066.5 1-.4-.333-.75-.616-1.051-.85-.5-.4-.966-.867-1.399-1.4-.5-.633-.733-1.1-.7-1.399.033-.267.35-.084.95.55a20.89 20.89 0 011.7 2.099z" clip-rule="evenodd" fill="#EEEFE7" fill-rule="evenodd"/><path d="M7.15 5.95c.033.133.267.367.7.7.367.3.5.5.4.6-.1.133-.55-.083-1.35-.65-.167-.133-.167-.3 0-.5.133-.233.217-.283.25-.15zM24.3 8.7l-.2.45c-.1.367-.083.684.05.95.167.267.217.467.15.6-.033.066-.1.167-.2.3-.067.133 0 .317.2.55.133.1.25.184.35.25h1.4l-.85 2.6c-.067.4-.034.967.1 1.7l-1.1-.95c-.1-.1-.4-.733-.9-1.9-.133-.367-.267-.617-.4-.75a3.392 3.392 0 00-.45-.15c-.133-.033-.117-.317.05-.85.233-.667.367-1.117.4-1.35.267-1.066.417-1.733.45-2 .033-.233.15-.283.35-.15.233.133.433.367.6.7z" clip-rule="evenodd" fill="#7BB334" fill-rule="evenodd"/><path d="M25.15 8.95c.1.367.267.733.5 1.1.167.2.2.333.1.4-.467.167-.733.2-.8.1-.133-.167-.233-.517-.3-1.05-.033-.267.033-.467.2-.6.167-.1.267-.083.3.05zM23.75 16l1.45 2 .85.5c.6.4.983.717 1.15.95.2.267.216.383.05.35-.2-.066-.433-.233-.7-.5-.233-.233-.466-.233-.7 0l-.25.4-1.2-.15c-.233-.033-.383-.117-.45-.25a5.992 5.992 0 00-.35-1.1l-.6-1.95.75-.25zm1.7 4.65c.267.533.4.866.4 1-.033.133-.2.267-.5.399-.233.101-.417.066-.55-.1-.133-.3-.267-.55-.4-.75-.167-.267-.283-.733-.35-1.4-.033-.267.15-.267.55 0s.683.551.85.851zm-2.3-2.4c.2.433.25.783.15 1.05-.066.267-.183.284-.35.05l-.8-1.3c-.1-.133-.117-.35-.05-.65l.1-.65c.033-.133.167 0 .4.4.233.367.417.733.55 1.1zm-1.5-2.4c0 .4.033.717.1.95.167.267.117.317-.15.15-.233-.2-.45-.567-.65-1.1A6.52 6.52 0 0020 14c-.2-.3-.35-.717-.45-1.25l-.1-.7 1.95 2.8c.2.3.283.633.25 1zm-1.3-.35c.267.5.4.9.4 1.2-.667-.6-1.083-1.15-1.25-1.65-.1-.333-.017-.4.25-.2.233.167.433.383.6.65zm-1.8-12.2c.233.367.333.6.3.7 0 .067-.067.183-.2.35-.066.133-.117.367-.15.7v1c-.067.8-.2 1.483-.4 2.05-.1.3-.067.816.1 1.55.066.333.15.65.25.95-.333-.934-.633-1.533-.9-1.8-.167-.2-.216-.4-.15-.6.133-.267.233-.517.3-.75.2-.534.3-1.4.3-2.6 0-.434.033-.833.1-1.2.1-.567.25-.683.45-.35zm-5.2-2.05l.2 1.3c.1.467.05.767-.15.9l.35.9.4 1.75c.167.5.333 1.35.5 2.55L14 7.7c-.2-.267-.383-.917-.55-1.95-.034-.533-.067-.867-.1-1 0-.233-.083-.467-.25-.7-.133-.2-.167-.433-.1-.7.1-.367.15-.667.15-.9-.033-.534-.217-1.117-.55-1.75l.25.05c.167.1.333.267.5.5zM11 7.85l1.35 1.4.2.8c.034.067.333.65.9 1.75.3.467.4.784.3.95l-.85-.9-1.05-1.75c-.1-.367-.133-.717-.1-1.05 0-.133-.017-.2-.05-.2-.133 0-.3-.067-.5-.2-.167-.1-.25-.167-.25-.2.033-.067-.017-.2-.15-.4l-1.75-2.1c-.133-.1-.15-.3-.05-.6s.2-.45.3-.45c.467.067.633.35.5.85l.15.7c.233.467.583.933 1.05 1.4z" clip-rule="evenodd" fill="#7BB334" fill-rule="evenodd"/></svg>